<svg xmlns="http://www.w3.org/2000/svg" xmlns:xlink="http://www.w3.org/1999/xlink" width="352.02" height="45.614" viewBox="0 0 352.02 45.614"><defs><clipPath id="clip-path"><rect id="Rectangle_35" data-name="Rectangle 35" width="352.02" height="45.614" fill="none"></rect></clipPath><linearGradient id="linear-gradient" x1="0.5" x2="0.5" y2="1" gradientUnits="objectBoundingBox"><stop offset="0" stop-color="#fff"></stop><stop offset="0.628" stop-color="#363985"></stop><stop offset="1" stop-color="#544d9a"></stop></linearGradient></defs><g id="Group_237" data-name="Group 237" transform="translate(-450 175)"><path id="Path_2548" data-name="Path 2548" d="M62.717,6.047h5.5l5.35,19.809L79.5,6.047h5.2L90.59,25.779,95.9,6.047h5.31l-7.986,28.3H87.992L82.061,14.382,76.13,34.346h-5.35Z" transform="translate(464.969 -173.557)" fill="#fff"></path><g id="Group_236" data-name="Group 236" transform="translate(450 -175)"><g id="Group_235" data-name="Group 235" transform="translate(0 0)" clip-path="url(#clip-path)"><path id="Path_2549" data-name="Path 2549" d="M93.574,20.271a14.478,14.478,0,1,1,14.459,14.537A14.451,14.451,0,0,1,93.574,20.271m23.724,0a9.246,9.246,0,1,0-9.265,9.342,9.281,9.281,0,0,0,9.265-9.342" transform="translate(22.334 1.369)" fill="#fff"></path><path id="Path_2550" data-name="Path 2550" d="M118.922,34.346V6.047h9.071c6.668,0,10.583,3.992,10.583,9.846a9.186,9.186,0,0,1-4.768,8.257l5.66,10.2h-6.009L128.923,25.7H124.2v8.645Zm8.606-13.49c4.342,0,5.776-2.365,5.776-5.155,0-2.908-1.744-4.729-5.776-4.729H124.2v9.885Z" transform="translate(28.385 1.443)" fill="#fff"></path><path id="Path_2551" data-name="Path 2551" d="M145.533,20.739l-3.062,3.8v9.808H137.2V6.047h5.273v11.59l9.342-11.59h6.4l-8.956,11.009,9.769,17.29h-6.009Z" transform="translate(32.747 1.443)" fill="#fff"></path><path id="Path_2552" data-name="Path 2552" d="M156.462,29.458c0-4.884,3.915-7.715,7.443-10.118,2.791-1.977,5.35-3.528,5.35-5.7,0-1.861-1.358-3.372-3.877-3.372-2.481,0-3.992,1.666-4.962,4.031l-4.535-2.287a9.888,9.888,0,0,1,9.535-6.28c5.738,0,9.187,3.489,9.187,7.947s-3.643,6.977-7.054,9.264c-2.907,1.977-5.816,3.761-5.816,6.436h12.755v5.039H156.462Z" transform="translate(37.206 1.369)" fill="#fff"></path><path id="Path_2553" data-name="Path 2553" d="M172.686,20.271A14.236,14.236,0,0,1,187.145,5.734a14.436,14.436,0,0,1,12.87,7.249l-4.651,2.792a8.7,8.7,0,0,0-8.179-4.924,9.3,9.3,0,0,0-9.265,9.42,9.246,9.246,0,0,0,9.459,9.42,7.977,7.977,0,0,0,8.179-6.125h-9.031V18.527h14.692v2.092c0,7.638-5.35,14.189-13.84,14.189a14.265,14.265,0,0,1-14.692-14.537" transform="translate(41.217 1.369)" fill="#fff"></path><path id="Path_2554" data-name="Path 2554" d="M197.722,6.047h16.785v5.04H202.994V17.6h11.514v5.04H202.994v6.668h11.514v5.039H197.722Z" transform="translate(47.193 1.443)" fill="#fff"></path><path id="Path_2555" data-name="Path 2555" d="M220.709,11.087h-7.56V6.047h20.43v5.04h-7.6V34.346h-5.272Z" transform="translate(50.875 1.443)" fill="#fff"></path><path id="Path_2556" data-name="Path 2556" d="M247.9,22.678H237.042V34.346H231.77V6.047h5.272v11.59H247.9V6.047h5.272v28.3H247.9Z" transform="translate(55.319 1.443)" fill="#fff"></path><path id="Path_2557" data-name="Path 2557" d="M251.673,6.047h16.785v5.04H256.945V17.6h11.514v5.04H256.945v6.668h11.514v5.039H251.673Z" transform="translate(60.07 1.443)" fill="#fff"></path><path id="Path_2558" data-name="Path 2558" d="M267.6,34.346V6.047h9.071c6.668,0,10.583,3.992,10.583,9.846a9.186,9.186,0,0,1-4.768,8.257l5.66,10.2h-6.009L277.6,25.7h-4.728v8.645Zm8.606-13.49c4.342,0,5.776-2.365,5.776-5.155,0-2.908-1.744-4.729-5.776-4.729h-3.333v9.885Z" transform="translate(63.872 1.443)" fill="#fff"></path></g></g><path id="Path_2559" data-name="Path 2559" d="M15.049,0,30.1,26.066l-3.762,6.517L7.524,0H0L26.336,45.614l7.525-13.032,7.524,13.032L60.195,13.033H37.621l3.763,6.515h7.525L41.384,32.581,36.63,24.35,26.336,6.517H63.958L67.72,0Z" transform="translate(450 -175)" fill="url(#linear-gradient)"></path></g></svg>